<?xml version="1.0" ?>
<!DOCTYPE svg  PUBLIC '-//W3C//DTD SVG 1.1//EN'  'http://www.w3.org/Graphics/SVG/1.1/DTD/svg11.dtd'>
<!-- Uploaded to: SVG Repo, www.svgrepo.com, Generator: SVG Repo Mixer Tools -->
<svg fill="#000000" width="800px" height="800px" viewBox="0 0 32 32" style="fill-rule:evenodd;clip-rule:evenodd;stroke-linejoin:round;stroke-miterlimit:2;" version="1.1" xml:space="preserve" xmlns="http://www.w3.org/2000/svg" xmlns:serif="http://www.serif.com/" xmlns:xlink="http://www.w3.org/1999/xlink">
<g transform="matrix(1,0,0,1,-288,-96)">
<g transform="matrix(1,0,0,1,-1,0)">
<path d="M315,101C315,100.47 314.789,99.961 314.414,99.586C314.039,99.211 313.53,99 313,99C309.168,99 300.832,99 297,99C296.47,99 295.961,99.211 295.586,99.586C295.211,99.961 295,100.47 295,101C295,106.022 295,119.147 295,124.586C295,124.99 295.244,125.355 295.617,125.51C295.991,125.664 296.421,125.579 296.707,125.293C297.264,124.736 297.852,124.148 298.293,123.707C298.683,123.317 299.317,123.317 299.707,123.707C300.185,124.185 300.815,124.815 301.293,125.293C301.683,125.683 302.317,125.683 302.707,125.293C303.187,124.813 303.82,124.18 304.299,123.701C304.687,123.313 305.316,123.31 305.707,123.695C306.198,124.178 306.85,124.819 307.342,125.302C307.735,125.688 308.365,125.684 308.753,125.293C309.225,124.818 309.845,124.193 310.319,123.715C310.507,123.526 310.762,123.42 311.029,123.42C311.295,123.419 311.551,123.526 311.738,123.715C312.172,124.151 312.745,124.729 313.29,125.278C313.576,125.566 314.006,125.652 314.381,125.498C314.756,125.344 315,124.979 315,124.573C315,119.128 315,106.018 315,101Z" style="fill:rgb(144,224,239);"/>
</g>
<path d="M298,124.414C298,124.414 299.586,126 299.586,126C300.367,126.781 301.633,126.781 302.414,126L304.006,124.408L305.641,126.015C306.426,126.787 307.687,126.779 308.463,125.998L310.029,124.42C310.029,124.42 311.581,125.983 311.581,125.983C312.152,126.558 313.013,126.731 313.762,126.423C314.511,126.114 315,125.384 315,124.573L315,101C315,100.204 314.684,99.441 314.121,98.879C313.559,98.316 312.796,98 312,98C308.168,98 299.832,98 296,98C295.204,98 294.441,98.316 293.879,98.879C293.316,99.441 293,100.204 293,101L293,124.586C293,125.395 293.487,126.124 294.235,126.434C294.982,126.743 295.842,126.572 296.414,126L298,124.414ZM313,124.574C313,124.574 311.448,123.01 311.448,123.01C311.072,122.632 310.561,122.419 310.028,122.42C309.495,122.42 308.984,122.633 308.609,123.011L307.043,124.589C307.043,124.589 305.408,122.982 305.408,122.982C304.625,122.212 303.368,122.218 302.592,122.994L301,124.586L299.414,123C298.633,122.219 297.367,122.219 296.586,123L295,124.586C295,119.147 295,106.022 295,101C295,100.735 295.105,100.48 295.293,100.293C295.48,100.105 295.735,100 296,100L312,100C312.265,100 312.52,100.105 312.707,100.293C312.895,100.48 313,100.735 313,101L313,124.574ZM298,118L299,118C299.552,118 300,117.552 300,117C300,116.448 299.552,116 299,116L298,116C297.448,116 297,116.448 297,117C297,117.552 297.448,118 298,118ZM303,118L310,118C310.552,118 311,117.552 311,117C311,116.448 310.552,116 310,116L303,116C302.448,116 302,116.448 302,117C302,117.552 302.448,118 303,118ZM298,112L299,112C299.552,112 300,111.552 300,111C300,110.448 299.552,110 299,110L298,110C297.448,110 297,110.448 297,111C297,111.552 297.448,112 298,112ZM303,112L310,112C310.552,112 311,111.552 311,111C311,110.448 310.552,110 310,110L303,110C302.448,110 302,110.448 302,111C302,111.552 302.448,112 303,112ZM298,106L299,106C299.552,106 300,105.552 300,105C300,104.448 299.552,104 299,104L298,104C297.448,104 297,104.448 297,105C297,105.552 297.448,106 298,106ZM303,106L310,106C310.552,106 311,105.552 311,105C311,104.448 310.552,104 310,104L303,104C302.448,104 302,104.448 302,105C302,105.552 302.448,106 303,106Z" style="fill:rgb(25,144,167);"/>
</g>
</svg>