<?xml version="1.0" encoding="iso-8859-1"?>
<!-- Uploaded to: SVG Repo, www.svgrepo.com, Generator: SVG Repo Mixer Tools -->
<svg version="1.1" id="Layer_1" xmlns="http://www.w3.org/2000/svg" xmlns:xlink="http://www.w3.org/1999/xlink" 
	 viewBox="0 0 511.998 511.998" xml:space="preserve">
<path style="fill:#0071CE;" d="M88.006,419.389c-9.154,0-16.601-7.448-16.601-16.602v-221.31c0-9.153,7.446-16.6,16.601-16.6
	h399.417c9.153,0,16.6,7.446,16.6,16.6v221.311c0,9.154-7.447,16.602-16.6,16.602H88.006V419.389z"/>
<rect x="99.223" y="192.692" style="fill:#0055B8;" width="376.993" height="198.882"/>
<g>
	<circle style="fill:#FFFFFF;" cx="287.714" cy="292.138" r="80.888"/>
	<path style="fill:#FFFFFF;" d="M99.22,192.692v73.38c40.526,0,73.381-32.854,73.381-73.38H99.22z"/>
	<path style="fill:#FFFFFF;" d="M476.209,192.692v73.38c-40.527,0-73.379-32.854-73.379-73.38H476.209z"/>
	<path style="fill:#FFFFFF;" d="M99.22,391.572v-73.38c40.526,0,73.381,32.853,73.381,73.38H99.22z"/>
	<path style="fill:#FFFFFF;" d="M476.209,391.572v-73.38c-40.527,0-73.379,32.853-73.379,73.38H476.209z"/>
</g>
<path style="fill:#00A8E1;" d="M283.39,279.446v-15.57c-5.535,0.808-7.957,3.574-7.957,7.266
	C275.432,274.716,277.046,277.138,283.39,279.446z M294.233,299.63v16.031c5.418-0.807,8.187-3.345,8.187-7.498
	C302.42,304.358,300.459,301.822,294.233,299.63z"/>
<path style="fill:#4BB6AA;" d="M24.578,347.122c-9.156,0-16.602-7.448-16.602-16.601V109.209c0-9.154,7.446-16.601,16.602-16.601
	h399.417c9.152,0,16.599,7.448,16.599,16.601v221.311c0,9.153-7.447,16.601-16.599,16.601L24.578,347.122L24.578,347.122z"/>
<rect x="35.791" y="120.428" style="fill:#0071CE;" width="376.993" height="198.882"/>
<g>
	<path style="fill:#FFFFFF;" d="M369.113,227.841h-30.841c-4.405,0-7.976-3.571-7.976-7.976s3.571-7.976,7.976-7.976h30.841
		c4.406,0,7.976,3.571,7.976,7.976S373.519,227.841,369.113,227.841z"/>
	<path style="fill:#FFFFFF;" d="M110.303,227.841H79.462c-4.406,0-7.976-3.571-7.976-7.976s3.57-7.976,7.976-7.976h30.841
		c4.406,0,7.976,3.571,7.976,7.976S114.708,227.841,110.303,227.841z"/>
	<circle style="fill:#FFFFFF;" cx="224.288" cy="219.864" r="80.888"/>
	<path style="fill:#FFFFFF;" d="M35.791,120.425v73.379c40.526,0,73.381-32.853,73.381-73.379
		C109.173,120.425,35.791,120.425,35.791,120.425z"/>
	<path style="fill:#FFFFFF;" d="M412.78,120.425v73.379c-40.526,0-73.379-32.853-73.379-73.379
		C339.401,120.425,412.78,120.425,412.78,120.425z"/>
	<path style="fill:#FFFFFF;" d="M35.791,319.304v-73.38c40.526,0,73.381,32.854,73.381,73.38H35.791z"/>
	<path style="fill:#FFFFFF;" d="M412.78,319.304v-73.38c-40.526,0-73.379,32.854-73.379,73.38H412.78z"/>
</g>
<path style="fill:#00A8E1;" d="M225.382,169.81c3.344,0,5.999,2.651,5.999,5.998v1.614c6.226,0.923,11.765,2.769,16.724,5.536
	c2.19,1.269,4.15,3.46,4.15,6.92c0,4.383-3.46,7.728-7.843,7.728c-1.385,0-2.767-0.347-4.036-1.039
	c-3.23-1.73-6.457-3.114-9.571-3.922v17.53c17.527,4.729,25.027,11.881,25.027,24.797c0,12.917-9.919,21.222-24.45,22.838v6.112
	c0,3.345-2.656,5.998-5.999,5.998c-3.346,0-5.998-2.652-5.998-5.998v-6.227c-8.189-1.039-15.918-3.922-22.72-8.074
	c-2.424-1.501-3.925-3.806-3.925-6.921c0-4.499,3.462-7.843,7.96-7.843c1.501,0,3.115,0.577,4.499,1.501
	c4.844,3.113,9.459,5.305,14.763,6.459v-18.339c-16.611-4.497-24.798-10.842-24.798-24.569c0-12.687,9.687-21.222,24.221-22.72
	v-1.384C219.384,172.461,222.036,169.81,225.382,169.81z M219.962,207.178v-15.57c-5.536,0.808-7.958,3.575-7.958,7.266
	C212.004,202.449,213.617,204.872,219.962,207.178z M230.804,227.362v16.032c5.418-0.807,8.187-3.346,8.187-7.498
	C238.991,232.091,237.031,229.554,230.804,227.362z"/>
<path style="fill:#1E252B;" d="M412.78,112.449H35.791c-4.406,0-7.976,3.571-7.976,7.976v198.879c0,4.405,3.57,7.976,7.976,7.976
	h376.988c4.406,0,7.976-3.571,7.976-7.976V120.425C420.757,116.02,417.185,112.449,412.78,112.449z M43.768,128.401h56.925
	c-3.63,29.696-27.228,53.294-56.925,56.923V128.401z M43.768,311.328v-56.924c29.698,3.63,53.295,27.228,56.925,56.924H43.768z
	 M404.804,311.328h-56.923c3.629-29.697,27.227-53.295,56.923-56.924V311.328z M404.804,238.344
	c-38.503,3.765-69.219,34.48-72.983,72.985H116.753c-3.765-38.504-34.481-69.22-72.986-72.985v-36.959
	c38.504-3.765,69.221-34.479,72.986-72.983h215.068c3.765,38.504,34.48,69.219,72.983,72.983V238.344z M404.804,185.325
	c-29.697-3.63-53.294-27.227-56.923-56.923h56.923V185.325z M487.423,156.9h-38.852v-47.691c0-13.552-11.024-24.577-24.575-24.577
	H24.578C11.026,84.632,0,95.657,0,109.209v221.311c0,13.552,11.026,24.577,24.578,24.577h38.85v47.69
	c0,13.553,11.025,24.578,24.577,24.578h399.417c13.551,0,24.576-11.026,24.576-24.578v-221.31
	C512,167.925,500.974,156.9,487.423,156.9z M448.571,200.668h19.662v56.937c-6.813-0.836-13.46-2.736-19.662-5.626V200.668z
	 M448.571,269.218c6.329,2.28,12.941,3.773,19.662,4.435v36.959c-6.721,0.661-13.333,2.154-19.662,4.434V269.218z M448.499,332.317
	c6.222-2.908,12.895-4.819,19.735-5.658v56.937h-56.95c1.231-10.231,4.851-19.914,10.642-28.498h2.071
	C436.942,355.098,447.573,345.033,448.499,332.317z M24.578,339.146c-4.757,0-8.626-3.869-8.626-8.625V109.209
	c0-4.756,3.87-8.625,8.626-8.625h399.417c4.755,0,8.623,3.869,8.623,8.625v221.311c0,4.756-3.869,8.625-8.623,8.625L24.578,339.146
	L24.578,339.146z M403.471,355.098c-4.478,8.889-7.255,18.497-8.219,28.498H180.179c-0.964-10.001-3.741-19.609-8.22-28.498H403.471
	z M164.148,383.596h-56.953v-28.498h46.309C159.298,363.682,162.916,373.365,164.148,383.596z M496.048,402.788
	c0,4.757-3.869,8.626-8.624,8.626H88.006c-4.756,0-8.625-3.87-8.625-8.626v-47.69h11.862v36.474c0,4.405,3.57,7.976,7.976,7.976
	h376.989c4.405,0,7.976-3.571,7.976-7.976v-198.88c0-4.405-3.571-7.976-7.976-7.976h-27.638v-11.863h38.852
	c4.756,0,8.624,3.869,8.624,8.624v221.311H496.048z"/>
</svg>